<svg width="150" height="146" viewBox="0 0 150 146" fill="none" xmlns="http://www.w3.org/2000/svg">
<rect y="8" width="138" height="138" rx="12" fill="url(#paint0_linear_6003_2674)" fill-opacity="0.1"/>
<rect x="0.5" y="8.5" width="137" height="137" rx="11.5" stroke="url(#paint1_linear_6003_2674)" stroke-opacity="0.4"/>
<g clip-path="url(#clip0_6003_2674)">
<rect x="110" width="40" height="40" rx="20" fill="#F1F2F2"/>
<path d="M130 3.33325C120.8 3.33325 113.333 10.7999 113.333 19.9999C113.333 29.1999 120.8 36.6666 130 36.6666C139.2 36.6666 146.667 29.1999 146.667 19.9999C146.667 10.7999 139.2 3.33325 130 3.33325ZM126.667 28.3333L118.333 19.9999L120.683 17.6499L126.667 23.6166L139.317 10.9666L141.667 13.3333L126.667 28.3333Z" fill="#1BA2BB"/>
</g>
<mask id="mask0_6003_2674" style="mask-type:alpha" maskUnits="userSpaceOnUse" x="8" y="46" width="126" height="45">
<path d="M120.173 64.2496L25.9918 90.105L8.19614 90.105L8.19611 46.8631L133.717 46.8633L133.717 64.2496H120.173Z" fill="#D9D9D9"/>
</mask>
<g mask="url(#mask0_6003_2674)">
<path fill-rule="evenodd" clip-rule="evenodd" d="M131.612 63.0346C132.41 66.8405 130.371 70.5605 127.767 73.7426C125.755 76.2023 122.478 78.4535 118.806 80.4874C115.025 82.5824 110.387 84.6804 105.255 86.7046C94.9826 90.7562 82.428 94.6292 70.1141 97.6595C57.8209 100.685 45.5885 102.914 35.9801 103.61C31.2064 103.955 26.8481 103.941 23.3757 103.359C21.6404 103.068 19.9217 102.602 18.4249 101.833C16.921 101.061 15.3613 99.8304 14.4841 97.9005C12.8255 94.2517 14.1922 90.7507 15.796 88.3599C17.4286 85.9262 19.8764 83.7087 22.3655 81.8367C27.3763 78.0682 33.6994 74.8581 37.7398 73.4151C53.2229 67.8854 70.9208 62.3604 100.659 56.8533C105.047 56.0407 109.424 55.4802 113.388 55.3046C117.284 55.1322 121.075 55.3156 124.145 56.1711C127.041 56.9782 130.732 58.8391 131.612 63.0346ZM113.775 64.0322C110.313 64.1856 106.35 64.6841 102.249 65.4434C73.0182 70.8566 55.7715 76.2518 40.6781 81.6423C37.4466 82.7963 31.9065 85.5923 27.6165 88.8187C25.4552 90.4441 23.8932 91.9712 23.051 93.2268C22.7759 93.6368 22.6302 93.9306 22.5544 94.129C22.9867 94.3261 23.7118 94.5569 24.8211 94.743C27.2921 95.1575 30.8534 95.222 35.3493 94.8965C44.2803 94.25 55.9876 92.139 68.0265 89.1765C80.0446 86.219 92.2142 82.457 102.05 78.5778C106.972 76.6366 111.234 74.6951 114.573 72.8456C118.021 70.935 120.084 69.3365 121.006 68.2105C122.42 66.4814 122.846 65.4719 122.981 65.0284C122.768 64.9127 122.403 64.7548 121.8 64.5867C120.031 64.0937 117.307 63.8758 113.775 64.0322ZM123.243 65.2173C123.24 65.2184 123.222 65.2033 123.197 65.1684C123.234 65.1988 123.246 65.2162 123.243 65.2173ZM22.1947 93.9286C22.1948 93.9285 22.1973 93.9305 22.2019 93.9345C22.1969 93.9306 22.1946 93.9286 22.1947 93.9286ZM22.4777 94.4065C22.4851 94.4445 22.4827 94.4656 22.4797 94.4666C22.4767 94.4677 22.473 94.4487 22.4777 94.4065Z" fill="#5FCBBF"/>
<path fill-rule="evenodd" clip-rule="evenodd" d="M131.612 58.224C132.41 62.0299 130.371 65.75 127.767 68.932C125.755 71.3918 122.478 73.6429 118.806 75.6768C115.025 77.7718 110.387 79.8698 105.255 81.8941C94.9826 85.9457 82.428 89.8187 70.1141 92.849C57.8209 95.8741 45.5885 98.1037 35.9801 98.7993C31.2064 99.1449 26.8481 99.1307 23.3757 98.5482C21.6404 98.257 19.9217 97.7918 18.4249 97.0228C16.921 96.2501 15.3613 95.0199 14.4841 93.0899C12.8255 89.4411 14.1922 85.9401 15.796 83.5494C17.4286 81.1157 19.8764 78.8982 22.3655 77.0262C27.3763 73.2577 33.6994 70.0475 37.7398 68.6045C53.2229 63.0749 70.9208 57.5498 100.659 52.0428C105.047 51.2301 109.424 50.6697 113.388 50.4941C117.284 50.3216 121.075 50.505 124.145 51.3606C127.041 52.1676 130.732 54.0285 131.612 58.224ZM113.775 59.2217C110.313 59.375 106.35 59.8735 102.249 60.6329C73.0182 66.0461 55.7715 71.4412 40.6781 76.8317C37.4466 77.9858 31.9065 80.7817 27.6165 84.0081C25.4552 85.6335 23.8932 87.1606 23.051 88.4162C22.7759 88.8263 22.6302 89.1201 22.5544 89.3184C22.9867 89.5155 23.7118 89.7463 24.8211 89.9324C27.2921 90.347 30.8534 90.4114 35.3493 90.0859C44.2803 89.4394 55.9876 87.3285 68.0265 84.3659C80.0446 81.4084 92.2142 77.6465 102.05 73.7672C106.972 71.826 111.234 69.8846 114.573 68.035C118.021 66.1244 120.084 64.526 121.006 63.4C122.42 61.6709 122.846 60.6614 122.981 60.2178C122.768 60.1021 122.403 59.9443 121.8 59.7761C120.031 59.2831 117.307 59.0653 113.775 59.2217ZM123.243 60.4068C123.24 60.4079 123.222 60.3927 123.197 60.3579C123.234 60.3883 123.246 60.4057 123.243 60.4068ZM22.1947 89.118C22.1948 89.118 22.1973 89.1199 22.2019 89.124C22.1969 89.1201 22.1946 89.1181 22.1947 89.118ZM22.4777 89.596C22.4851 89.6339 22.4827 89.655 22.4797 89.6561C22.4767 89.6571 22.473 89.6381 22.4777 89.596Z" fill="#C5EDEE"/>
</g>
<path d="M46.313 48.563H91.0682L84.9493 86.8497L58.7256 89.1224L44.9144 65.1714L46.313 48.563Z" fill="white"/>
<g filter="url(#filter0_i_6003_2674)">
<path d="M51.351 43C49.3822 43 47.6497 43.7578 46.2944 44.9742C44.939 46.1907 43.928 47.8372 43.1563 49.6885C41.6127 53.3909 41 57.9768 41 62.1095C41 70.5015 44.6244 79.2395 48.6741 83.268C49.2355 83.8265 49.6741 85.0724 49.8414 86.8072C50.0086 88.5421 49.938 90.6917 49.8247 92.8864C49.7114 95.0812 49.5579 97.3285 49.5917 99.3558C49.6256 101.383 49.7929 103.196 50.6235 104.643C52.7882 108.415 57.5692 112.139 63.0142 111.996C63.1832 111.991 63.3493 111.951 63.5021 111.878C63.6549 111.805 63.791 111.7 63.9017 111.571C64.0124 111.442 64.0953 111.291 64.1451 111.127C64.1949 110.964 64.2106 110.791 64.191 110.621C64.191 110.621 63.6592 105.794 64.1387 101.048C64.3785 98.6754 64.8862 96.335 65.7292 94.7331C66.5721 93.1313 67.5316 92.3134 69.1526 92.3134C70.7735 92.3134 71.7017 93.1257 72.5213 94.7235C73.3408 96.3212 73.8228 98.6565 74.0309 101.029C74.4472 105.775 73.8502 110.602 73.8502 110.602C73.8275 110.777 73.8419 110.954 73.8927 111.123C73.9434 111.291 74.0293 111.447 74.1444 111.579C74.2595 111.711 74.4012 111.817 74.5601 111.889C74.7189 111.961 74.8911 111.997 75.065 111.996C80.5446 111.996 84.6877 109.04 87.2038 105.19C89.6117 101.504 88.6446 96.5186 88.0477 92.1931C87.7493 90.0304 87.5123 88.0084 87.6436 86.4798C87.7749 84.9512 88.162 84.068 89.089 83.5135C92.1509 81.6821 94.0483 78.2508 95.244 74.3765C96.4397 70.5022 96.941 66.1168 96.9961 62.1287C97.0517 58.1057 96.5222 53.5161 95.0015 49.7799C94.2411 47.9118 93.2204 46.249 91.8396 45.0128C90.4588 43.7765 88.6808 43 86.6451 43C79.5756 43 75.954 43.6339 73.6362 44.2832C71.3185 44.9325 70.5808 45.4653 68.998 45.4653C67.4153 45.4653 66.68 44.9325 64.3622 44.2832C62.0444 43.6339 58.4205 43 51.351 43ZM55.4995 48.6242C55.8651 48.6382 56.2034 48.6713 56.5098 48.7155C57.7355 48.893 58.5496 49.2982 58.5496 49.2982L57.4608 51.4988C57.4608 51.4988 57.0624 51.2855 56.158 51.1545C55.2536 51.0236 53.9376 51.0222 52.3043 51.5734C51.7378 51.7644 51.2741 52.199 50.8589 52.9C50.4436 53.601 50.1248 54.5291 49.9151 55.4496C49.4955 57.2909 49.4824 59.025 49.4824 59.025H47.0575C47.0575 59.025 47.0491 57.0587 47.5425 54.8936C47.7891 53.811 48.1527 52.6685 48.7644 51.636C49.3762 50.6034 50.2818 49.6487 51.5412 49.2235C53.0549 48.7125 54.4026 48.5829 55.4995 48.6242ZM59.2676 56.5598C61.9421 56.5598 64.1292 58.7822 64.1292 61.4908C64.1292 64.1994 61.9421 66.424 59.2676 66.424C56.593 66.424 54.3987 64.1994 54.3987 61.4908C54.3987 58.7822 56.593 56.5598 59.2676 56.5598ZM78.7381 56.5598C81.4126 56.5598 83.6092 58.7822 83.6092 61.4908C83.6092 64.1994 81.4126 66.424 78.7381 66.424C76.0635 66.424 73.8692 64.1994 73.8692 61.4908C73.8692 58.7822 76.0635 56.5598 78.7381 56.5598ZM60.4443 73.8227H77.4804C77.8032 73.8214 78.1133 73.9501 78.3425 74.1804C78.5716 74.4107 78.7011 74.7236 78.7024 75.0506V76.2881C78.7024 80.5928 74.4865 84.9147 68.9624 84.9147C63.4383 84.9147 59.2224 80.5928 59.2224 76.2881V75.0506C59.2237 74.7236 59.3531 74.4107 59.5823 74.1804C59.8114 73.9501 60.1215 73.8214 60.4443 73.8227Z" fill="url(#paint2_linear_6003_2674)"/>
</g>
<mask id="mask1_6003_2674" style="mask-type:alpha" maskUnits="userSpaceOnUse" x="8" y="53" width="126" height="55">
<path d="M26.1652 90.0925L119.987 64.4076L133.717 53.6865V87.187H111.101V107.542H8.19612L8.19611 89.6077L26.1652 90.0925Z" fill="#D9D9D9"/>
</mask>
<g mask="url(#mask1_6003_2674)">
<path fill-rule="evenodd" clip-rule="evenodd" d="M131.612 63.0343C132.41 66.8402 130.371 70.5603 127.767 73.7423C125.755 76.2021 122.478 78.4532 118.806 80.4871C115.025 82.5821 110.387 84.6801 105.255 86.7044C94.9826 90.756 82.4279 94.629 70.114 97.6593C57.8209 100.684 45.5884 102.914 35.9801 103.61C31.2064 103.955 26.8481 103.941 23.3757 103.358C21.6403 103.067 19.9217 102.602 18.4249 101.833C16.921 101.06 15.3613 99.8302 14.484 97.9002C12.8255 94.2514 14.1922 90.7504 15.796 88.3597C17.4286 85.926 19.8764 83.7085 22.3655 81.8365C27.3762 78.068 33.6994 74.8578 37.7398 73.4148C53.2229 67.8852 70.9208 62.3601 100.659 56.8531C105.047 56.0404 109.424 55.48 113.388 55.3044C117.284 55.1319 121.075 55.3153 124.145 56.1709C127.041 56.9779 130.732 58.8389 131.612 63.0343ZM113.775 64.032C110.312 64.1853 106.35 64.6838 102.249 65.4432C73.0182 70.8564 55.7715 76.2515 40.678 81.642C37.4466 82.7961 31.9064 85.592 27.6164 88.8184C25.4552 90.4438 23.8932 91.9709 23.0509 93.2265C22.7759 93.6366 22.6302 93.9304 22.5543 94.1287C22.9867 94.3258 23.7117 94.5566 24.8211 94.7427C27.292 95.1573 30.8533 95.2217 35.3493 94.8963C44.2802 94.2497 55.9876 92.1388 68.0265 89.1762C80.0446 86.2187 92.2142 82.4568 102.05 78.5775C106.972 76.6363 111.234 74.6949 114.573 72.8453C118.021 70.9347 120.084 69.3363 121.006 68.2103C122.42 66.4812 122.846 65.4717 122.981 65.0281C122.768 64.9124 122.403 64.7546 121.8 64.5864C120.031 64.0934 117.307 63.8756 113.775 64.032ZM123.243 65.2171C123.24 65.2182 123.222 65.203 123.197 65.1682C123.234 65.1986 123.246 65.216 123.243 65.2171ZM22.1947 93.9283C22.1948 93.9283 22.1973 93.9302 22.2018 93.9343C22.1968 93.9304 22.1946 93.9284 22.1947 93.9283ZM22.4777 94.4063C22.485 94.4442 22.4827 94.4653 22.4797 94.4664C22.4766 94.4674 22.473 94.4485 22.4777 94.4063Z" fill="#5FCBBF"/>
<path fill-rule="evenodd" clip-rule="evenodd" d="M131.612 58.224C132.41 62.0299 130.371 65.75 127.767 68.932C125.755 71.3918 122.478 73.6429 118.806 75.6768C115.025 77.7718 110.387 79.8698 105.255 81.8941C94.9826 85.9457 82.4279 89.8187 70.114 92.849C57.8209 95.8741 45.5884 98.1037 35.9801 98.7993C31.2064 99.1449 26.8481 99.1307 23.3757 98.5482C21.6403 98.257 19.9217 97.7918 18.4249 97.0228C16.921 96.2501 15.3613 95.0199 14.484 93.0899C12.8255 89.4411 14.1922 85.9401 15.796 83.5494C17.4286 81.1157 19.8764 78.8982 22.3655 77.0262C27.3762 73.2577 33.6994 70.0475 37.7398 68.6045C53.2229 63.0749 70.9208 57.5498 100.659 52.0428C105.047 51.2301 109.424 50.6697 113.388 50.4941C117.284 50.3216 121.075 50.505 124.145 51.3606C127.041 52.1676 130.732 54.0285 131.612 58.224ZM113.775 59.2217C110.312 59.375 106.35 59.8735 102.249 60.6329C73.0182 66.0461 55.7715 71.4412 40.678 76.8317C37.4466 77.9858 31.9064 80.7817 27.6164 84.0081C25.4552 85.6335 23.8932 87.1606 23.0509 88.4162C22.7759 88.8263 22.6302 89.1201 22.5543 89.3184C22.9867 89.5155 23.7117 89.7463 24.8211 89.9324C27.292 90.347 30.8533 90.4114 35.3493 90.0859C44.2802 89.4394 55.9876 87.3285 68.0265 84.3659C80.0446 81.4084 92.2142 77.6465 102.05 73.7672C106.972 71.826 111.234 69.8846 114.573 68.035C118.021 66.1244 120.084 64.526 121.006 63.4C122.42 61.6709 122.846 60.6614 122.981 60.2178C122.768 60.1021 122.403 59.9443 121.8 59.7761C120.031 59.2831 117.307 59.0653 113.775 59.2217ZM123.243 60.4068C123.24 60.4079 123.222 60.3927 123.197 60.3579C123.234 60.3883 123.246 60.4057 123.243 60.4068ZM22.1947 89.118C22.1948 89.118 22.1973 89.1199 22.2018 89.124C22.1968 89.1201 22.1946 89.1181 22.1947 89.118ZM22.4777 89.596C22.485 89.6339 22.4827 89.655 22.4797 89.6561C22.4766 89.6571 22.473 89.6381 22.4777 89.596Z" fill="#C5EDEE"/>
</g>
<defs>
<filter id="filter0_i_6003_2674" x="41" y="43" width="56" height="73" filterUnits="userSpaceOnUse" color-interpolation-filters="sRGB">
<feFlood flood-opacity="0" result="BackgroundImageFix"/>
<feBlend mode="normal" in="SourceGraphic" in2="BackgroundImageFix" result="shape"/>
<feColorMatrix in="SourceAlpha" type="matrix" values="0 0 0 0 0 0 0 0 0 0 0 0 0 0 0 0 0 0 127 0" result="hardAlpha"/>
<feOffset dy="4"/>
<feGaussianBlur stdDeviation="2"/>
<feComposite in2="hardAlpha" operator="arithmetic" k2="-1" k3="1"/>
<feColorMatrix type="matrix" values="0 0 0 0 0 0 0 0 0 0 0 0 0 0 0 0 0 0 0.08 0"/>
<feBlend mode="normal" in2="shape" result="effect1_innerShadow_6003_2674"/>
</filter>
<linearGradient id="paint0_linear_6003_2674" x1="69" y1="8" x2="69" y2="146" gradientUnits="userSpaceOnUse">
<stop stop-color="#1BA2BB" stop-opacity="0.5"/>
<stop offset="1" stop-color="#1BA2BB"/>
</linearGradient>
<linearGradient id="paint1_linear_6003_2674" x1="69" y1="8" x2="69" y2="146" gradientUnits="userSpaceOnUse">
<stop stop-color="#1BA2BB"/>
<stop offset="1" stop-color="#1BA2BB" stop-opacity="0.5"/>
</linearGradient>
<linearGradient id="paint2_linear_6003_2674" x1="69" y1="43" x2="69" y2="112" gradientUnits="userSpaceOnUse">
<stop stop-color="#7CE8FC"/>
<stop offset="1" stop-color="#1BA2BB"/>
</linearGradient>
<clipPath id="clip0_6003_2674">
<rect x="110" width="40" height="40" rx="20" fill="white"/>
</clipPath>
</defs>
</svg>
